<svg width="452" height="497" viewBox="0 0 452 497" fill="none" xmlns="http://www.w3.org/2000/svg">
<path fill-rule="evenodd" clip-rule="evenodd" d="M173.592 210.393C172.384 211.255 170.84 211.531 169.397 211.138C167.953 210.749 166.745 209.735 166.141 208.372C160.637 196.128 156.541 183.111 154.091 169.534C152.312 159.682 151.372 149.535 151.372 139.17C151.372 130.856 151.977 122.676 153.151 114.681V114.678C153.554 111.758 155.602 109.328 158.387 108.398C161.207 107.468 164.295 108.196 166.376 110.284L206.554 150.459C212.864 149.556 219.342 149.089 225.921 149.089C232.5 149.089 238.978 149.556 245.288 150.459L285.466 110.284C287.581 108.196 290.669 107.468 293.454 108.398C296.24 109.328 298.288 111.758 298.724 114.678V114.681C299.866 122.676 300.469 130.856 300.469 139.17C300.469 149.535 299.53 159.682 297.751 169.534C295.3 183.101 291.206 196.107 285.734 208.349C285.13 209.711 283.922 210.725 282.479 211.118C281.035 211.51 279.491 211.235 278.249 210.373C263.414 200.021 245.389 193.946 225.954 193.946C206.487 193.946 188.428 200.028 173.592 210.393ZM165.738 387.309C110.02 373.671 83.9395 293.561 136.671 246.324C137.745 245.378 139.323 245.297 140.464 246.137C141.605 246.979 142.008 248.51 141.437 249.805C127.642 280.068 140.262 303.939 184.233 315.6C186.347 316.154 188.663 316.788 190.778 317.51C205.144 322.441 215.482 336.081 215.482 352.119C215.482 372.309 199.102 388.698 178.929 388.698C175.439 388.698 171.042 388.604 165.738 387.309ZM286.137 387.309C280.868 388.604 276.437 388.698 272.98 388.698C252.773 388.698 236.393 372.309 236.393 352.119C236.393 336.081 246.731 322.441 261.097 317.51C263.212 316.788 265.562 316.154 267.643 315.6C311.613 303.939 324.267 280.068 310.472 249.805C309.868 248.51 310.271 246.979 311.412 246.137C312.587 245.297 314.164 245.378 315.205 246.324C367.969 293.561 341.889 373.671 286.137 387.309Z" fill="white"/>
<path fill-rule="evenodd" clip-rule="evenodd" d="M147.411 267.746C152.613 244.656 167.785 225.313 188.126 214.454C190.979 212.927 206.855 205.546 226.323 205.546C238.608 205.546 248.98 208.225 253.511 209.876C278.953 219.16 298.421 240.924 304.463 267.746C305 271.774 304.732 275.583 303.523 279.155C299.529 291.03 286.371 299.173 264.823 304.893C262.473 305.513 259.855 306.229 257.505 307.034C247.133 310.595 238.373 317.644 232.6 326.78C232.331 327.237 231.928 327.616 231.458 327.885C229.646 328.939 227.397 328.946 225.585 327.902C223.738 326.858 222.597 324.921 222.597 322.817C222.53 319.097 222.966 314.955 224.443 311.032C224.443 311.025 224.443 311.022 224.443 311.015C227.565 301.865 235.05 294.88 244.381 292.393C252.571 290.191 263.547 286.895 271.233 282.901C270.461 280.158 268.75 277.748 266.333 276.141C263.279 274.083 259.419 273.569 255.928 274.744C249.45 276.946 241.629 278.772 232.398 279.779C230.787 279.957 229.21 279.443 228.001 278.362C226.793 277.285 226.088 275.748 226.088 274.13C226.054 270.196 226.759 266.021 227.733 261.993C229.948 252.984 236.661 245.784 245.489 243.005C245.623 242.958 245.757 242.918 245.858 242.881C248.476 242.102 250.926 241.169 253.343 239.927C256.935 238.081 261.298 234.201 259.855 228.988C259.15 226.34 257.404 223.725 251.363 220.936C243.542 218.143 235.117 216.522 226.323 216.622C205.244 216.857 193.832 224.128 192.254 224.95C189.099 226.595 187.354 228.763 186.951 231.029C186.347 234.369 188.73 237.611 192.187 239.776C201.921 245.851 209.708 259.348 205.647 269.025C202.458 276.53 189.468 276.923 179.533 277.597C174.397 277.95 169.9 281.145 167.886 285.864C166.476 289.228 164.798 293.088 163.556 295.823C161.508 294.736 151.942 289.389 148.384 279.155C147.142 275.597 146.907 271.774 147.411 267.746Z" fill="#31DCB2"/>
</svg>
